<svg width="92" height="34" viewBox="0 0 92 34" fill="none" xmlns="http://www.w3.org/2000/svg">
<path d="M43.5744 12.5737V10.6783C43.3141 10.3398 42.776 10.1198 42.3421 10.1198C41.5264 10.1198 40.9363 10.6952 40.9363 11.626C40.9363 12.5567 41.5264 13.149 42.3421 13.149C42.776 13.149 43.3141 12.9121 43.5744 12.5737ZM43.5744 14.7567V14.029C43.0364 14.6213 42.3942 14.909 41.6826 14.909C40.1032 14.909 38.8535 13.7414 38.8535 11.6091C38.8535 9.56139 40.0858 8.32602 41.6826 8.34295C42.3942 8.34295 43.0711 8.61371 43.5744 9.23986V8.49525H45.6225V14.7567H43.5744Z" fill="white"/>
<path d="M33.6992 6.10913V12.8106H37.9168V14.7567H31.4256L31.4082 6.12605L33.6992 6.10913Z" fill="white"/>
<path d="M50.5703 14.7566V6.12598H57.0616V8.07211H52.8613L52.844 9.40902L56.9748 9.42594V11.3551H52.844V14.7566H50.5703Z" fill="white"/>
<path d="M58.2422 14.7735V8.512H60.2902V9.27353C60.7242 8.76585 61.5399 8.34277 62.3036 8.34277V10.2551C62.1821 10.2212 62.0085 10.2043 61.8002 10.2043C61.2622 10.2043 60.5679 10.4243 60.3076 10.7797V14.7735H58.2422Z" fill="white"/>
<path d="M67.5276 12.6077V10.7123C67.2672 10.3739 66.7292 10.1539 66.2953 10.1539C65.4795 10.1539 64.8894 10.7292 64.8894 11.66C64.8894 12.5908 65.4795 13.1831 66.2953 13.1831C66.7465 13.1661 67.2672 12.9461 67.5276 12.6077ZM67.5276 14.7738V14.0461C66.9895 14.6384 66.3473 14.9261 65.6357 14.9261C64.0563 14.9261 62.8066 13.7584 62.8066 11.6262C62.8066 9.57848 64.0389 8.34311 65.6357 8.36003C66.3473 8.36003 67.0242 8.6308 67.5276 9.25695V8.51234H69.5756V14.7738H67.5276Z" fill="white"/>
<path d="M75.4075 14.7904V11.1858C75.4075 10.4243 74.9909 10.1535 74.3661 10.1535C73.7586 10.1535 73.3594 10.4751 73.1164 10.7628V14.8073H71.0684V8.54586H73.1164V9.30739C73.4982 8.8674 74.2619 8.39355 75.3554 8.39355C76.796 8.39355 77.4729 9.22278 77.4729 10.3735V14.8073L75.4075 14.7904Z" fill="white"/>
<path d="M78.5312 11.6598C78.5312 9.69678 80.0239 8.37679 82.0199 8.39372C83.4084 8.39372 84.2588 8.98602 84.6407 9.54447L83.3042 10.746C83.0439 10.3906 82.6447 10.1537 82.0893 10.1537C81.2388 10.1537 80.5966 10.7291 80.5793 11.6598C80.5793 12.6075 81.2215 13.1829 82.0719 13.1829C82.61 13.1829 83.0265 12.929 83.2869 12.5737L84.6059 13.7921C84.2241 14.3336 83.3737 14.9429 81.9678 14.9429C80.0239 14.9429 78.5312 13.606 78.5312 11.6598Z" fill="white"/>
<path d="M88.5797 10.0014C87.6945 10.0014 87.3474 10.526 87.2606 10.966H89.8988C89.8467 10.526 89.5169 10.0014 88.5797 10.0014ZM85.1779 11.6598C85.1779 9.84907 86.5837 8.37678 88.5797 8.3937C90.4715 8.3937 91.86 9.76445 91.86 11.8798V12.3367H87.2953C87.4342 12.8952 87.9722 13.369 88.9095 13.369C89.3607 13.369 90.107 13.1829 90.4715 12.8444L91.3567 14.1475C90.7145 14.7059 89.6558 14.9767 88.6665 14.9767C86.6879 14.9598 85.1605 13.6906 85.1779 11.6598Z" fill="white"/>
<path d="M31.5822 25.4184V19.2415H33.5955V25.4184H31.5822ZM31.4434 17.5661C31.4434 16.94 31.964 16.4492 32.6062 16.4492C33.2484 16.4492 33.7691 16.9569 33.7691 17.5831C33.7691 18.2092 33.2484 18.7169 32.6062 18.7169C31.964 18.7169 31.4434 18.1923 31.4434 17.5661Z" fill="white"/>
<path d="M39.3573 25.4351V21.8644C39.3573 21.1029 38.9581 20.849 38.3159 20.849C37.7085 20.849 37.3266 21.1705 37.0836 21.4413V25.4351H35.0703V19.2583H37.0836V20.0198C37.4655 19.5798 38.2118 19.106 39.2879 19.106C40.7111 19.106 41.3707 19.9183 41.3707 21.069V25.4351H39.3573Z" fill="white"/>
<path d="M42.3086 24.6397L43.1417 23.2351C43.6103 23.6413 44.617 24.0644 45.3633 24.0644C45.9708 24.0644 46.2138 23.8951 46.2138 23.6244C46.2138 22.8628 42.5342 23.6413 42.5342 21.1367C42.5342 20.0536 43.5062 19.106 45.2592 19.106C46.3353 19.106 47.2204 19.4444 47.9147 19.9352L47.1336 21.3229C46.7518 20.9675 46.0402 20.6459 45.2765 20.6459C44.8079 20.6459 44.4955 20.8321 44.4955 21.069C44.4955 21.7459 48.175 21.0521 48.1577 23.5736C48.1577 24.7582 47.0989 25.5874 45.2765 25.5874C44.131 25.5874 42.9681 25.2151 42.3086 24.6397Z" fill="white"/>
<path d="M53.6083 22.3553C53.6083 21.543 53.1049 20.8661 52.2198 20.8661C51.3519 20.8661 50.8486 21.543 50.8486 22.3553C50.8486 23.1845 51.3519 23.8615 52.2024 23.8615C53.1049 23.8615 53.6083 23.1845 53.6083 22.3553ZM48.7832 22.3553C48.7832 20.6123 50.0676 19.123 52.2198 19.123C54.3893 19.123 55.6737 20.6292 55.6737 22.3553C55.6737 24.0984 54.3893 25.6045 52.2024 25.6045C50.0676 25.6045 48.7832 24.0984 48.7832 22.3553Z" fill="white"/>
<path d="M61.0177 25.4522V24.7076C60.6185 25.1476 59.9069 25.6046 58.8308 25.6046C57.4076 25.6046 56.748 24.7923 56.748 23.6753V19.2754H58.7614V22.863C58.7614 23.6246 59.1606 23.8784 59.8027 23.8784C60.3755 23.8784 60.7747 23.5738 61.0177 23.2861V19.2923H63.031V25.4692L61.0177 25.4522Z" fill="white"/>
<path d="M72.4917 25.4693V21.7124C72.4917 21.2386 72.2487 20.8832 71.6586 20.8832C71.1032 20.8832 70.7214 21.2216 70.5131 21.4755V25.4693H68.4998V21.7124C68.4998 21.2386 68.2741 20.8832 67.6667 20.8832C67.1113 20.8832 66.7294 21.2216 66.5211 21.4755V25.4693H64.5078V19.2924H66.5211V20.054C66.7988 19.6986 67.6146 19.1401 68.6039 19.1401C69.5238 19.1401 70.1313 19.5124 70.3916 20.2401C70.7561 19.6986 71.5892 19.1401 72.5785 19.1401C73.7414 19.1401 74.4703 19.7324 74.4703 21.0017V25.4693H72.4917Z" fill="white"/>
<path d="M75.9613 25.4691V19.2923H77.9747V25.4691H75.9613ZM75.8398 17.6169C75.8398 16.9908 76.3605 16.5 77.0027 16.5C77.6449 16.5 78.1656 17.0077 78.1656 17.6338C78.1656 18.26 77.6449 18.7677 77.0027 18.7677C76.3605 18.7677 75.8398 18.2431 75.8398 17.6169Z" fill="white"/>
<path d="M78.9121 24.6739L79.7452 23.2693C80.2138 23.6755 81.2205 24.0985 81.9668 24.0985C82.5743 24.0985 82.8173 23.9293 82.8173 23.6585C82.8173 22.897 79.1377 23.6755 79.1377 21.1709C79.1377 20.0878 80.1097 19.1401 81.8453 19.1401C82.9214 19.1401 83.8066 19.4786 84.5009 19.9694L83.7198 21.357C83.338 21.0016 82.6264 20.6801 81.8627 20.6801C81.3941 20.6801 81.0817 20.8663 81.0817 21.1032C81.0817 21.7801 84.7612 21.0863 84.7438 23.6078C84.7438 24.7754 83.6851 25.6216 81.8627 25.6216C80.7519 25.6385 79.589 25.2662 78.9121 24.6739Z" fill="white"/>
<path d="M88.7541 20.7475C87.8689 20.7475 87.5391 21.2552 87.4523 21.7121H90.0558C90.0211 21.2721 89.6913 20.7475 88.7541 20.7475ZM85.4043 22.389C85.4043 20.5952 86.7928 19.1567 88.7714 19.1567C90.6459 19.1567 92.0171 20.5106 91.9997 22.5921V23.0321H87.4871C87.6259 23.5905 88.1466 24.0475 89.0665 24.0475C89.5178 24.0475 90.2467 23.8613 90.6112 23.5229L91.4964 24.809C90.8716 25.3505 89.8128 25.6213 88.8409 25.6213C86.8969 25.6382 85.4043 24.4028 85.4043 22.389Z" fill="white"/>
<path d="M13.6361 22.7782C15.8751 22.7782 18.1314 22.0336 19.9712 20.5106C22.9911 18.0229 24.3623 13.8091 23.2862 10.306L23.2689 10.2384C23.0953 9.59529 22.2969 7.63223 21.0125 7.19223C19.5372 6.68455 17.4371 6.95531 15.7189 11.1183C14.5039 14.0799 13.7576 17.989 13.6535 22.1352C13.6535 22.3382 13.6361 22.5582 13.6361 22.7782ZM13.5667 33.8796C13.532 33.8966 13.4972 33.8966 13.4625 33.9135C12.4732 34.2181 11.4319 33.6935 11.1021 32.7289C10.512 30.9012 10.1128 28.532 9.95656 25.9428C7.40519 25.2659 5.04473 23.8444 3.22232 21.7459C0.879213 19.0383 -0.248945 15.6029 0.0461125 12.083C0.34117 8.54606 2.04209 5.34764 4.80174 3.06304C6.65887 1.52306 8.91518 0.507686 11.3104 0.101536C11.4839 0.0676901 11.831 0 12.2302 0C13.6882 0 14.3651 0.744606 14.6428 1.20152C15.6841 2.92766 14.1394 4.94149 12.317 6.83685C11.6054 7.58146 10.4252 7.6153 9.67886 6.92147C8.9499 6.26147 8.88047 5.14456 9.52266 4.39995C8.70691 4.77226 7.92588 5.2461 7.23162 5.82148C5.21829 7.47992 4.00335 9.79836 3.77772 12.3706C3.55209 14.926 4.38519 17.4137 6.08611 19.3767C7.14484 20.6121 8.46392 21.509 9.90449 22.0675C9.90449 22.0505 9.90449 22.0336 9.90449 21.9998C9.99128 18.7675 10.4773 14.0122 12.2476 9.73067C13.3237 7.12454 14.7643 5.27994 16.552 4.24765C18.3049 3.23227 20.2836 3.04612 22.2622 3.72304C25.5772 4.85687 26.7401 8.68145 26.8963 9.27375C27.6253 11.6599 27.5732 14.266 26.7748 16.7875C25.9591 19.3429 24.4491 21.5767 22.401 23.2859C21.1861 24.2844 19.8497 25.0459 18.4438 25.5536C16.9338 26.112 15.337 26.3997 13.7576 26.4167C13.9138 28.4305 14.2436 30.2412 14.6948 31.612C14.9899 32.5427 14.5039 33.5412 13.5667 33.8796Z" fill="white"/>
</svg>
