<svg width="337" height="343" viewBox="0 0 337 343" fill="none" xmlns="http://www.w3.org/2000/svg">
<g style="mix-blend-mode:darken">
<circle cx="209.402" cy="127" r="127" fill="#4B64DD"/>
<ellipse opacity="0.2" rx="122" ry="27.5" transform="matrix(1 0 0 -1 195 315.5)" fill="#4B64DD"/>
<path d="M54.4551 64.6525C89.3818 99.5792 186.951 191.942 186.951 191.942C169.633 230.729 101.415 224.653 66.6937 185.586C31.7671 150.659 25.8462 93.2615 54.4551 64.6525Z" fill="#4B64DD"/>
<path d="M47.9424 60.0591C84.3416 96.4583 179.756 191.872 179.756 191.872C153.53 218.098 102.763 209.85 66.3636 173.451C29.9643 137.052 21.7169 86.2845 47.9424 60.0591Z" fill="white"/>
<ellipse cx="113.464" cy="126.349" rx="29.9785" ry="93.206" transform="rotate(-45 113.464 126.349)" fill="#4B64DD"/>
<path fill-rule="evenodd" clip-rule="evenodd" d="M52.9678 70.8054C64.8358 63.6175 97.1135 80.9006 127.338 111.125C156.865 140.652 174.041 172.139 168.117 184.642C168.724 184.274 169.278 183.842 169.775 183.345C179.993 173.126 162.522 139.087 130.751 107.317C98.9807 75.5461 64.9417 58.0748 54.7231 68.2934C54.0015 69.015 53.418 69.8554 52.9678 70.8054Z" fill="white"/>
<path d="M198.497 52.3259L104.201 125.91C104.201 137.247 110.742 138.628 114.012 137.901L198.497 52.3259Z" fill="white"/>
<rect x="188.139" y="41.425" width="21.8026" height="21.8026" rx="10.9013" fill="white"/>
</g>
</svg>
